<svg xmlns="http://www.w3.org/2000/svg" xmlns:xlink="http://www.w3.org/1999/xlink" xmlns:inkscape="http://www.inkscape.org/namespaces/inkscape" version="1.1" width="217.587" height="224.106" viewBox="0 0 217.587 224.106">
<defs>
<clipPath id="clip_1">
<path transform="matrix(3,0,0,-3,-469.485,2152.146)" d="M0 0H612.28V790.87H0Z"/>
</clipPath>
</defs>
<g clip-path="url(#clip_1)">
<path transform="matrix(.3,0,0,-.3,-469.485,2152.146)" d="M1931.69 7049.84C1925.41 7049.84 1920.03 7047.25 1915.64 7041.08 1916.14 7056.33 1921.92 7066.39 1931.59 7066.39 1935.28 7066.39 1938.77 7065.39 1941.86 7063.5L1945.44 7069.58C1941.56 7072.17 1937.08 7073.66 1931.69 7073.66 1915.95 7073.66 1906.48 7059.11 1906.48 7037.3 1906.48 7018.16 1912.66 7004.8 1928.91 7004.8 1940.66 7004.8 1950.13 7014.08 1950.13 7028.63 1950.13 7042.88 1941.45 7049.84 1931.69 7049.84ZM1928.91 7012.08C1920.03 7012.08 1916.14 7018.86 1915.75 7033.41 1919.14 7038.89 1924.13 7042.58 1930.09 7042.58 1936.38 7042.58 1940.86 7038.89 1940.86 7028.33 1940.86 7018.56 1936.77 7012.08 1928.91 7012.08" fill="#231f20"/>
<path transform="matrix(.3,0,0,-.3,-469.485,2152.146)" d="M2031.81 7073.66C2020.25 7073.66 2010.48 7065.59 2010.48 7051.64 2010.48 7038.39 2018.56 7030.22 2028.92 7030.22 2035.69 7030.22 2040.97 7033.7 2043.86 7038.19 2043.17 7023.14 2032.5 7015.47 2015.77 7010.69L2017.86 7003.81C2042.38 7010.88 2053.33 7020.16 2053.33 7047.75 2053.33 7063.39 2046.16 7073.66 2031.81 7073.66ZM2030.81 7037.39C2024.33 7037.39 2019.75 7041.88 2019.75 7051.44 2019.75 7061 2024.23 7066.39 2032.02 7066.39 2040.28 7066.39 2044.36 7060.7 2044.06 7045.66 2040.78 7040.58 2036.48 7037.39 2030.81 7037.39" fill="#231f20"/>
<path transform="matrix(.3,0,0,-.3,-469.485,2152.146)" d="M2156.14 7072.66H2120.08V7039.08H2127.25C2130.44 7040.58 2133.13 7041.38 2136.72 7041.38 2143.59 7041.38 2148.88 7037.78 2148.88 7027.53 2148.88 7017.77 2143.59 7012.28 2135.22 7012.28 2129.44 7012.28 2125.16 7014.38 2120.97 7018.56L2115.59 7013.28C2120.77 7008 2126.84 7004.8 2135.33 7004.8 2149.17 7004.8 2158.44 7014.08 2158.44 7027.33 2158.44 7040.58 2150.77 7048.45 2139.5 7048.45 2135.92 7048.45 2132.33 7047.66 2128.84 7045.86V7065.48H2154.86L2156.14 7072.66" fill="#231f20"/>
<path transform="matrix(.3,0,0,-.3,-469.485,2152.146)" d="M2051.25 6952.66H2012.48V6945.19H2041.98L2017.97 6887.8 2026.34 6885 2051.25 6945.78V6952.66" fill="#231f20"/>
<path transform="matrix(.3,0,0,-.3,-469.485,2152.146)" d="M2141.69 6929.84C2135.41 6929.84 2130.03 6927.25 2125.64 6921.08 2126.14 6936.33 2131.92 6946.39 2141.59 6946.39 2145.28 6946.39 2148.77 6945.39 2151.86 6943.5L2155.44 6949.58C2151.56 6952.17 2147.08 6953.66 2141.69 6953.66 2125.95 6953.66 2116.48 6939.11 2116.48 6917.3 2116.48 6898.16 2122.66 6884.8 2138.91 6884.8 2150.66 6884.8 2160.13 6894.08 2160.13 6908.63 2160.13 6922.88 2151.45 6929.84 2141.69 6929.84ZM2138.91 6892.08C2130.03 6892.08 2126.14 6898.86 2125.75 6913.41 2129.14 6918.89 2134.13 6922.58 2140.09 6922.58 2146.38 6922.58 2150.86 6918.89 2150.86 6908.33 2150.86 6898.56 2146.77 6892.08 2138.91 6892.08" fill="#231f20"/>
<path transform="matrix(.3,0,0,-.3,-469.485,2152.146)" d="M1846.02 6790.72H1837.36V6808.66H1829.38L1828.58 6790.72H1809.66L1827.69 6831.47 1820.02 6834.66 1799.98 6790.02V6783.44H1828.48V6767H1837.36V6783.44H1846.02V6790.72" fill="#231f20"/>
<path transform="matrix(.3,0,0,-.3,-469.485,2152.146)" d="M1938.19 6833.66H1930.11L1909.48 6820.91 1913.47 6814.44 1929.02 6823.91V6767H1938.19V6833.66" fill="#231f20"/>
<path transform="matrix(.3,0,0,-.3,-469.485,2152.146)" d="M2051.25 6833.66H2012.48V6826.19H2041.98L2017.97 6768.8 2026.34 6766 2051.25 6826.78V6833.66" fill="#231f20"/>
<path transform="matrix(.3,0,0,-.3,-469.485,2152.146)" d="M2137.8 6834.66C2122.86 6834.66 2115.48 6822.41 2115.48 6800.28 2115.48 6778.16 2122.86 6765.8 2137.8 6765.8 2152.75 6765.8 2160.13 6778.16 2160.13 6800.28 2160.13 6822.3 2152.75 6834.66 2137.8 6834.66ZM2137.8 6827.39C2146.08 6827.39 2150.56 6819.81 2150.56 6800.28 2150.56 6780.66 2146.08 6773.08 2137.8 6773.08 2129.44 6773.08 2125.05 6780.66 2125.05 6800.28 2125.05 6819.81 2129.44 6827.39 2137.8 6827.39" fill="#231f20"/>
<path transform="matrix(.3,0,0,-.3,-469.485,2152.146)" d="M1741.02 6670.72H1732.36V6688.66H1724.38L1723.58 6670.72H1704.66L1722.69 6711.47 1715.02 6714.66 1694.98 6670.02V6663.44H1723.48V6647H1732.36V6663.44H1741.02V6670.72" fill="#231f20"/>
<path transform="matrix(.3,0,0,-.3,-469.485,2152.146)" d="M1831.38 6682.77C1838.94 6686.56 1842.73 6691.05 1842.73 6697.81 1842.73 6709.19 1832.47 6714.66 1822.5 6714.66 1812.34 6714.66 1802.28 6708.78 1802.28 6697.52 1802.28 6690.64 1805.47 6685.56 1812.64 6681.97 1804.47 6678.39 1799.48 6673.2 1799.48 6664.64 1799.48 6653.67 1808.55 6645.8 1822.3 6645.8 1835.86 6645.8 1845.42 6653.67 1845.42 6664.84 1845.42 6673.2 1840.53 6679.09 1831.38 6682.77ZM1822.5 6707.78C1829.78 6707.78 1833.77 6703.7 1833.77 6697.52 1833.77 6691.84 1831.27 6688.36 1825.3 6684.97L1823.59 6685.56C1815.92 6688.05 1811.25 6690.55 1811.25 6697.42 1811.25 6704.09 1815.63 6707.78 1822.5 6707.78ZM1822.41 6653.08C1814.13 6653.08 1809.05 6657.36 1809.05 6664.64 1809.05 6671.91 1812.23 6676.5 1818.81 6679.69L1821.31 6678.78C1832.06 6675.09 1835.86 6671.91 1835.86 6664.73 1835.86 6657.77 1830.77 6653.08 1822.41 6653.08" fill="#231f20"/>
<path transform="matrix(.3,0,0,-.3,-469.485,2152.146)" d="M1931.69 6690.84C1925.41 6690.84 1920.03 6688.25 1915.64 6682.08 1916.14 6697.33 1921.92 6707.39 1931.59 6707.39 1935.28 6707.39 1938.77 6706.39 1941.86 6704.5L1945.44 6710.58C1941.56 6713.17 1937.08 6714.66 1931.69 6714.66 1915.95 6714.66 1906.48 6700.11 1906.48 6678.3 1906.48 6659.16 1912.66 6645.8 1928.91 6645.8 1940.66 6645.8 1950.13 6655.08 1950.13 6669.63 1950.13 6683.88 1941.45 6690.84 1931.69 6690.84ZM1928.91 6653.08C1920.03 6653.08 1916.14 6659.86 1915.75 6674.41 1919.14 6679.89 1924.13 6683.58 1930.09 6683.58 1936.38 6683.58 1940.86 6679.89 1940.86 6669.33 1940.86 6659.56 1936.77 6653.08 1928.91 6653.08" fill="#231f20"/>
<path transform="matrix(.3,0,0,-.3,-469.485,2152.146)" d="M2051.14 6713.66H2015.08V6680.08H2022.25C2025.44 6681.58 2028.13 6682.38 2031.72 6682.38 2038.59 6682.38 2043.88 6678.78 2043.88 6668.53 2043.88 6658.77 2038.59 6653.28 2030.22 6653.28 2024.44 6653.28 2020.16 6655.38 2015.97 6659.56L2010.59 6654.28C2015.77 6649 2021.84 6645.8 2030.33 6645.8 2044.17 6645.8 2053.44 6655.08 2053.44 6668.33 2053.44 6681.58 2045.77 6689.45 2034.5 6689.45 2030.92 6689.45 2027.33 6688.66 2023.84 6686.86V6706.48H2049.86L2051.14 6713.66" fill="#231f20"/>
<path transform="matrix(.3,0,0,-.3,-469.485,2152.146)" d="M1736.14 6594.66H1700.08V6561.08H1707.25C1710.44 6562.58 1713.13 6563.38 1716.72 6563.38 1723.59 6563.38 1728.88 6559.78 1728.88 6549.53 1728.88 6539.77 1723.59 6534.28 1715.22 6534.28 1709.44 6534.28 1705.16 6536.38 1700.97 6540.56L1695.59 6535.28C1700.77 6530 1706.84 6526.8 1715.33 6526.8 1729.17 6526.8 1738.44 6536.08 1738.44 6549.33 1738.44 6562.58 1730.77 6570.45 1719.5 6570.45 1715.92 6570.45 1712.33 6569.66 1708.84 6567.86V6587.48H1734.86L1736.14 6594.66" fill="#231f20"/>
<path transform="matrix(.3,0,0,-.3,-469.485,2152.146)" d="M1820.72 6595.66C1812.34 6595.66 1805.88 6592.27 1800.48 6585.59L1806.47 6580.81C1810.95 6585.89 1814.64 6588.09 1820.22 6588.09 1826.7 6588.09 1831.19 6584 1831.19 6577.03 1831.19 6566.17 1825.41 6559.78 1801.89 6535.28V6528H1841.25L1842.34 6535.67H1812.34C1832.78 6556.09 1840.75 6564.97 1840.75 6577.42 1840.75 6587.78 1832.97 6595.66 1820.72 6595.66" fill="#231f20"/>
<path transform="matrix(.3,0,0,-.3,-469.485,2152.146)" d="M1936.38 6563.77C1943.94 6567.56 1947.73 6572.05 1947.73 6578.81 1947.73 6590.19 1937.47 6595.66 1927.5 6595.66 1917.34 6595.66 1907.28 6589.78 1907.28 6578.52 1907.28 6571.64 1910.47 6566.56 1917.64 6562.97 1909.47 6559.39 1904.48 6554.2 1904.48 6545.64 1904.48 6534.67 1913.55 6526.8 1927.3 6526.8 1940.86 6526.8 1950.42 6534.67 1950.42 6545.84 1950.42 6554.2 1945.53 6560.09 1936.38 6563.77ZM1927.5 6588.78C1934.78 6588.78 1938.77 6584.7 1938.77 6578.52 1938.77 6572.84 1936.27 6569.36 1930.3 6565.97L1928.59 6566.56C1920.92 6569.05 1916.25 6571.55 1916.25 6578.42 1916.25 6585.09 1920.63 6588.78 1927.5 6588.78ZM1927.41 6534.08C1919.13 6534.08 1914.05 6538.36 1914.05 6545.64 1914.05 6552.91 1917.23 6557.5 1923.81 6560.69L1926.31 6559.78C1937.06 6556.09 1940.86 6552.91 1940.86 6545.73 1940.86 6538.77 1935.77 6534.08 1927.41 6534.08" fill="#231f20"/>
<path transform="matrix(.3,0,0,-.3,-469.485,2152.146)" d="M2030.72 6595.66C2022.34 6595.66 2015.88 6592.27 2010.48 6585.59L2016.47 6580.81C2020.95 6585.89 2024.64 6588.09 2030.22 6588.09 2036.7 6588.09 2041.19 6584 2041.19 6577.03 2041.19 6566.17 2035.41 6559.78 2011.89 6535.28V6528H2051.25L2052.34 6535.67H2022.34C2042.78 6556.09 2050.75 6564.97 2050.75 6577.42 2050.75 6587.78 2042.97 6595.66 2030.72 6595.66" fill="#231f20"/>
<path transform="matrix(.3,0,0,-.3,-469.485,2152.146)" d="M2137.8 6595.66C2122.86 6595.66 2115.48 6583.41 2115.48 6561.28 2115.48 6539.16 2122.86 6526.8 2137.8 6526.8 2152.75 6526.8 2160.13 6539.16 2160.13 6561.28 2160.13 6583.3 2152.75 6595.66 2137.8 6595.66ZM2137.8 6588.39C2146.08 6588.39 2150.56 6580.81 2150.56 6561.28 2150.56 6541.66 2146.08 6534.08 2137.8 6534.08 2129.44 6534.08 2125.05 6541.66 2125.05 6561.28 2125.05 6580.81 2129.44 6588.39 2137.8 6588.39" fill="#231f20"/>
<path transform="matrix(.3,0,0,-.3,-469.485,2152.146)" stroke-width="7.073" stroke-linecap="butt" stroke-miterlimit="10" stroke-linejoin="miter" fill="none" stroke="#231f20" d="M1665.04 6617.18H2190.08"/>
<path transform="matrix(.3,0,0,-.3,-469.485,2152.146)" stroke-width="7.073" stroke-linecap="butt" stroke-miterlimit="10" stroke-linejoin="miter" fill="none" stroke="#231f20" d="M1770.05 6856.29H2190.08"/>
<path transform="matrix(.3,0,0,-.3,-469.485,2152.146)" d="M1807.27 6931.84 1794.91 6919.48 1782.56 6931.84 1776.97 6926.25 1789.33 6913.91 1776.97 6901.55 1782.56 6895.97 1794.91 6908.33 1807.27 6895.97 1812.84 6901.55 1800.48 6913.91 1812.84 6926.25 1807.27 6931.84" fill="#231f20"/>
</g>
</svg>
